# xmcd
#
# Track frame offsets:
#	150
#	16882
#	34712
#	51871
#	72978
#	88827
#	103307
#	121788
#	141763
#	160063
#	177257
#	195576
#
# Disc length: 2846 seconds
#
# Revision: 0
# Processed by: cddbd v1.4PL0 Copyright (c) Steve Scherf et al.
# Submitted via: EasyCDDAExtractor 4.6.9.1
#
DISCID=9f0b1c0c
DTITLE=Joe Muggs - Coffee House CD Vol 1
DYEAR=1900
DGENRE=Country
TTITLE0=Fall to Pieces
TTITLE1=Anything at All
TTITLE2=Burning in the Sun
TTITLE3=Sleepsinging
TTITLE4=Mecury
TTITLE5=The Wanderer
TTITLE6=Broken
TTITLE7=Breathless
TTITLE8=No One Has To Know
TTITLE9=22 Steps
TTITLE10=Fireflies
TTITLE11=Three Steps at a Time
EXTD=
EXTT0=
EXTT1=
EXTT2=
EXTT3=
EXTT4=
EXTT5=
EXTT6=
EXTT7=
EXTT8=
EXTT9=
EXTT10=
EXTT11=
PLAYORDER=
